<svg width="233" height="74" viewBox="0 0 233 74" fill="none" xmlns="http://www.w3.org/2000/svg">
<path d="M100.338 61C99.8259 61 99.3779 60.824 98.9939 60.472C98.6419 60.12 98.4659 59.672 98.4659 59.128V25.384C98.4659 24.872 98.6419 24.44 98.9939 24.088C99.3779 23.704 99.8259 23.512 100.338 23.512C100.85 23.512 101.282 23.704 101.634 24.088C102.018 24.44 102.21 24.872 102.21 25.384V57.448H120.978C121.49 57.448 121.922 57.624 122.274 57.976C122.658 58.296 122.85 58.712 122.85 59.224C122.85 59.736 122.658 60.168 122.274 60.52C121.922 60.84 121.49 61 120.978 61H100.338ZM139.065 61.288C136.793 61.288 134.761 60.824 132.969 59.896C131.177 58.936 129.753 57.544 128.697 55.72C127.673 53.896 127.161 51.672 127.161 49.048V36.568C127.161 36.056 127.337 35.624 127.689 35.272C128.041 34.92 128.473 34.744 128.985 34.744C129.529 34.744 129.977 34.92 130.329 35.272C130.681 35.624 130.857 36.056 130.857 36.568V49.048C130.857 51.992 131.673 54.184 133.305 55.624C134.937 57.064 136.985 57.784 139.449 57.784C141.017 57.784 142.425 57.48 143.673 56.872C144.953 56.264 145.961 55.432 146.697 54.376C147.433 53.32 147.801 52.12 147.801 50.776V36.568C147.801 36.024 147.961 35.592 148.281 35.272C148.633 34.92 149.081 34.744 149.625 34.744C150.169 34.744 150.617 34.92 150.969 35.272C151.321 35.592 151.497 36.024 151.497 36.568V59.128C151.497 59.704 151.321 60.168 150.969 60.52C150.617 60.84 150.169 61 149.625 61C149.081 61 148.633 60.84 148.281 60.52C147.961 60.168 147.801 59.704 147.801 59.128V57.496C146.745 58.68 145.465 59.608 143.961 60.28C142.457 60.952 140.825 61.288 139.065 61.288ZM161.277 61C160.701 61 160.237 60.84 159.885 60.52C159.565 60.168 159.405 59.72 159.405 59.176V36.616C159.405 36.04 159.565 35.592 159.885 35.272C160.237 34.92 160.701 34.744 161.277 34.744C161.821 34.744 162.253 34.92 162.573 35.272C162.925 35.592 163.101 36.04 163.101 36.616V38.248C164.125 37.064 165.389 36.136 166.893 35.464C168.429 34.792 170.077 34.456 171.837 34.456C174.109 34.456 176.141 34.936 177.933 35.896C179.725 36.824 181.133 38.2 182.157 40.024C183.213 41.848 183.741 44.072 183.741 46.696V59.176C183.741 59.688 183.565 60.12 183.213 60.472C182.861 60.824 182.429 61 181.917 61C181.373 61 180.925 60.824 180.573 60.472C180.221 60.12 180.045 59.688 180.045 59.176V46.696C180.045 43.72 179.213 41.528 177.549 40.12C175.917 38.68 173.885 37.96 171.453 37.96C169.885 37.96 168.461 38.264 167.181 38.872C165.933 39.48 164.941 40.312 164.205 41.368C163.469 42.424 163.101 43.624 163.101 44.968V59.176C163.101 59.72 162.925 60.168 162.573 60.52C162.253 60.84 161.821 61 161.277 61ZM202.738 61.24C200.274 61.24 198.066 60.664 196.114 59.512C194.162 58.328 192.61 56.728 191.458 54.712C190.338 52.696 189.778 50.424 189.778 47.896C189.778 45.336 190.354 43.048 191.506 41.032C192.69 39.016 194.29 37.432 196.306 36.28C198.322 35.096 200.594 34.504 203.122 34.504C205.65 34.504 207.906 35.096 209.89 36.28C211.906 37.432 213.49 39.016 214.642 41.032C215.826 43.048 216.434 45.336 216.466 47.896V59.176C216.466 59.72 216.29 60.168 215.938 60.52C215.586 60.84 215.138 61 214.594 61C214.05 61 213.602 60.84 213.25 60.52C212.898 60.168 212.722 59.72 212.722 59.176V56.248C211.634 57.784 210.226 59 208.498 59.896C206.77 60.792 204.85 61.24 202.738 61.24ZM203.122 57.88C204.978 57.88 206.626 57.448 208.066 56.584C209.538 55.72 210.69 54.536 211.522 53.032C212.386 51.496 212.818 49.784 212.818 47.896C212.818 45.976 212.386 44.264 211.522 42.76C210.69 41.256 209.538 40.072 208.066 39.208C206.626 38.312 204.978 37.864 203.122 37.864C201.298 37.864 199.65 38.312 198.178 39.208C196.706 40.072 195.538 41.256 194.674 42.76C193.81 44.264 193.378 45.976 193.378 47.896C193.378 49.784 193.81 51.496 194.674 53.032C195.538 54.536 196.706 55.72 198.178 56.584C199.65 57.448 201.298 57.88 203.122 57.88Z" fill="#7F867B"/>
<circle cx="52" cy="37" r="37" fill="#7F867B"/>
<circle cx="21" cy="53" r="21" fill="#E3E4E0"/>
</svg>
