<svg width="255" height="70" viewBox="0 0 255 70" fill="none" xmlns="http://www.w3.org/2000/svg">
<path d="M168.478 28.0708L172.708 26.8835L173.239 22.5221L168.615 18.5546L161.611 17.3614L156.587 19.4735L155.925 22.1166L161.473 26.8776L168.478 28.0708Z" fill="#4BA55F" stroke="#4BA55F"/>
<path d="M26.75 45.2812C26.75 43.3646 26.0729 41.75 24.7188 40.4375C23.3854 39.125 21.125 37.9375 17.9375 36.875C13.5 35.5208 10.2604 33.7604 8.21875 31.5938C6.19792 29.4062 5.1875 26.6354 5.1875 23.2812C5.1875 19.8646 6.17708 17.0625 8.15625 14.875C10.1562 12.6875 12.8958 11.3854 16.375 10.9688V4.125H21.0312V11C24.5312 11.4792 27.25 12.9479 29.1875 15.4062C31.1458 17.8646 32.125 21.2292 32.125 25.5H26.375C26.375 22.5625 25.6771 20.2292 24.2812 18.5C22.8854 16.7708 21 15.9062 18.625 15.9062C16.1458 15.9062 14.25 16.5521 12.9375 17.8438C11.625 19.1146 10.9688 20.8958 10.9688 23.1875C10.9688 25.3125 11.6562 27.0104 13.0312 28.2812C14.4271 29.5312 16.7083 30.6771 19.875 31.7188C23.0625 32.7396 25.5417 33.875 27.3125 35.125C29.1042 36.3542 30.4167 37.7917 31.25 39.4375C32.1042 41.0833 32.5312 43.0104 32.5312 45.2188C32.5312 48.7396 31.4688 51.5729 29.3438 53.7188C27.2396 55.8646 24.2812 57.1354 20.4688 57.5312V63.5H15.8438V57.5312C11.9688 57.1771 8.92708 55.8021 6.71875 53.4062C4.53125 50.9896 3.4375 47.7188 3.4375 43.5938H9.21875C9.21875 46.4896 9.97917 48.7188 11.5 50.2812C13.0208 51.8438 15.1771 52.625 17.9688 52.625C20.6979 52.625 22.8438 51.9688 24.4062 50.6562C25.9688 49.3438 26.75 47.5521 26.75 45.2812ZM69.195 40.4688C69.195 45.6146 68.0179 49.7604 65.6637 52.9062C63.3096 56.0521 60.1221 57.625 56.1012 57.625C51.9971 57.625 48.7679 56.3229 46.4137 53.7188V70H40.6325V23.1875H45.9137L46.195 26.9375C48.5492 24.0208 51.82 22.5625 56.0075 22.5625C60.07 22.5625 63.2783 24.0938 65.6325 27.1562C68.0075 30.2188 69.195 34.4792 69.195 39.9375V40.4688ZM63.4137 39.8125C63.4137 36 62.6012 32.9896 60.9762 30.7812C59.3512 28.5729 57.1221 27.4688 54.2887 27.4688C50.7887 27.4688 48.1637 29.0208 46.4137 32.125V48.2812C48.1429 51.3646 50.7887 52.9062 54.3512 52.9062C57.1221 52.9062 59.32 51.8125 60.945 49.625C62.5908 47.4167 63.4137 44.1458 63.4137 39.8125ZM93.2337 28.375C92.3587 28.2292 91.4108 28.1562 90.39 28.1562C86.5983 28.1562 84.0254 29.7708 82.6712 33V57H76.89V23.1875H82.515L82.6087 27.0938C84.5046 24.0729 87.1921 22.5625 90.6712 22.5625C91.7962 22.5625 92.6504 22.7083 93.2337 23V28.375ZM96.7412 39.7812C96.7412 36.4688 97.3871 33.4896 98.6787 30.8438C99.9912 28.1979 101.804 26.1562 104.116 24.7188C106.45 23.2812 109.106 22.5625 112.085 22.5625C116.689 22.5625 120.408 24.1562 123.241 27.3438C126.095 30.5312 127.522 34.7708 127.522 40.0625V40.4688C127.522 43.7604 126.887 46.7188 125.616 49.3438C124.366 51.9479 122.564 53.9792 120.21 55.4375C117.877 56.8958 115.189 57.625 112.147 57.625C107.564 57.625 103.845 56.0312 100.991 52.8438C98.1579 49.6562 96.7412 45.4375 96.7412 40.1875V39.7812ZM102.554 40.4688C102.554 44.2188 103.418 47.2292 105.147 49.5C106.897 51.7708 109.231 52.9062 112.147 52.9062C115.085 52.9062 117.418 51.7604 119.147 49.4688C120.877 47.1562 121.741 43.9271 121.741 39.7812C121.741 36.0729 120.856 33.0729 119.085 30.7812C117.335 28.4688 115.002 27.3125 112.085 27.3125C109.231 27.3125 106.929 28.4479 105.179 30.7188C103.429 32.9896 102.554 36.2396 102.554 40.4688ZM155.967 53.6562C153.717 56.3021 150.415 57.625 146.061 57.625C142.457 57.625 139.707 56.5833 137.811 54.5C135.936 52.3958 134.988 49.2917 134.967 45.1875V23.1875H140.749V45.0312C140.749 50.1562 142.832 52.7188 146.999 52.7188C151.415 52.7188 154.353 51.0729 155.811 47.7812V23.1875H161.592V57H156.092L155.967 53.6562ZM178.569 15V23.1875H184.881V27.6562H178.569V48.625C178.569 49.9792 178.85 51 179.413 51.6875C179.975 52.3542 180.933 52.6875 182.288 52.6875C182.954 52.6875 183.871 52.5625 185.038 52.3125V57C183.517 57.4167 182.038 57.625 180.6 57.625C178.017 57.625 176.069 56.8438 174.756 55.2812C173.444 53.7188 172.788 51.5 172.788 48.625V27.6562H166.631V23.1875H172.788V15H178.569Z" fill="#4BA55F"/>
<path d="M181.286 20.3333L179 23.6667L181.286 27H187L192.714 23.6667L195 19.2222L193.857 17H187L181.286 20.3333Z" fill="#4BA55F" stroke="#4BA55F"/>
<path d="M176 2.91304V5.78261L174 6.73913L173 1.95652H169L167 5.78261L170 9.6087H167L165 13.4348L167 17.2609H171V21.087L173 23H177L178 18.2174L179 19.1739L181 21.087H183L185 19.1739V17.2609L183 13.4348H185L187 11.5217V9.6087L185 7.69565H181L183 5.78261V3.86957L182 1.95652L179 1L176 2.91304Z" fill="#EBC445" stroke="#EBC445"/>
<ellipse cx="175" cy="12.4784" rx="4" ry="3.82609" fill="#DF6741"/>
<path d="M127.5 40C127.5 49.722 120.507 57.5 112 57.5C103.493 57.5 96.5 49.722 96.5 40C96.5 30.278 103.493 22.5 112 22.5C120.507 22.5 127.5 30.278 127.5 40Z" fill="#CCAA3D" stroke="#EBC445"/>
<rect x="108.308" y="27.1428" width="7.38462" height="25.7143" fill="#EBC445"/>
<path d="M187 58C187 55.3478 185.841 52.8043 183.778 50.9289C181.715 49.0536 178.917 48 176 48C173.083 48 170.285 49.0536 168.222 50.9289C166.159 52.8043 165 55.3478 165 58L176 58H187Z" fill="#942B26"/>
</svg>
